<svg width="667" height="800" viewBox="0 0 667 800" fill="none" xmlns="http://www.w3.org/2000/svg">
<g clip-path="url(#clip0_286_12490)">
<rect width="667" height="800" fill="#103E5B"/>
<g opacity="0.05">
<path d="M459.033 111.72C551.728 92.0168 648.409 105.95 731.769 151.024C815.129 196.098 879.725 269.371 913.991 357.725C948.258 446.078 949.958 543.744 918.789 633.237C887.619 722.73 825.613 798.207 743.873 846.156C662.132 894.105 565.994 911.396 472.67 894.931C383.501 879.2 302.464 833.636 242.74 765.913C235.973 758.239 236.708 746.533 244.381 739.766C252.055 732.999 263.761 733.734 270.528 741.407C324.706 802.841 398.218 844.175 479.107 858.445C563.765 873.38 650.976 857.696 725.126 814.199C799.277 770.702 855.524 702.234 883.8 621.051C912.076 539.868 910.533 451.271 879.448 371.122C848.364 290.972 789.766 224.503 714.147 183.615C638.527 142.726 550.823 130.087 466.736 147.96C382.648 165.834 307.667 213.053 255.217 281.164C205.427 345.82 179.026 425.295 180.07 506.639C180.202 516.869 172.015 525.269 161.785 525.401C151.554 525.532 143.155 517.345 143.023 507.115C141.872 417.443 170.976 329.833 225.862 258.559C283.682 183.476 366.338 131.423 459.033 111.72Z" fill="white"/>
<path fill-rule="evenodd" clip-rule="evenodd" d="M541.167 622.302C608.063 622.302 662.292 568.073 662.292 501.178C662.292 434.282 608.063 380.053 541.167 380.053C474.272 380.053 420.043 434.282 420.043 501.178C420.043 568.073 474.272 622.302 541.167 622.302ZM541.167 585.252C587.601 585.252 625.242 547.611 625.242 501.178C625.242 454.744 587.601 417.103 541.167 417.103C494.734 417.103 457.093 454.744 457.093 501.178C457.093 547.611 494.734 585.252 541.167 585.252Z" fill="white"/>
<path d="M290.506 576.966C308.311 636.695 346.794 688.137 399.066 722.083C451.337 756.028 513.985 770.261 575.792 762.232C614.994 757.14 652.234 743.303 684.912 722.083C693.493 716.511 695.932 705.038 690.359 696.457C684.787 687.877 673.314 685.438 664.734 691.01C636.668 709.235 604.686 721.118 571.02 725.491C517.939 732.386 464.136 720.163 419.245 691.01C374.353 661.857 341.303 617.678 326.012 566.382C310.721 515.085 314.186 460.021 335.788 411.046C357.391 362.072 395.719 322.385 443.912 299.091C492.104 275.797 547.014 270.417 598.812 283.913C650.61 297.409 695.913 328.901 726.611 372.751C746.668 401.4 759.634 434.102 764.807 468.195C766.342 478.31 775.787 485.266 785.902 483.731C796.017 482.196 802.973 472.752 801.438 462.637C795.415 422.941 780.317 384.862 756.962 351.502C721.218 300.444 668.467 263.775 608.154 248.06C547.841 232.345 483.903 238.61 427.788 265.734C371.673 292.857 327.043 339.068 301.89 396.094C276.736 453.12 272.701 517.236 290.506 576.966Z" fill="white"/>
<path fill-rule="evenodd" clip-rule="evenodd" d="M195.77 702.212C233.546 702.212 264.17 671.588 264.17 633.812C264.17 596.036 233.546 565.412 195.77 565.412C157.994 565.412 127.37 596.036 127.37 633.812C127.37 671.588 157.994 702.212 195.77 702.212ZM195.77 665.162C213.084 665.162 227.12 651.126 227.12 633.812C227.12 616.498 213.084 602.462 195.77 602.462C178.456 602.462 164.42 616.498 164.42 633.812C164.42 651.126 178.456 665.162 195.77 665.162Z" fill="white"/>
<path fill-rule="evenodd" clip-rule="evenodd" d="M825.125 599.667C825.125 637.443 794.502 668.067 756.726 668.067C718.949 668.067 688.326 637.443 688.326 599.667C688.326 561.891 718.949 531.267 756.726 531.267C794.502 531.267 825.125 561.891 825.125 599.667ZM788.076 599.667C788.076 616.981 774.04 631.017 756.726 631.017C739.411 631.017 725.376 616.981 725.376 599.667C725.376 582.353 739.411 568.317 756.726 568.317C774.04 568.317 788.076 582.353 788.076 599.667Z" fill="white"/>
</g>
</g>
<defs>
<clipPath id="clip0_286_12490">
<rect width="667" height="800" fill="white"/>
</clipPath>
</defs>
</svg>
