<svg
  width="32"
  height="32"
  viewBox="0 0 79 78"
  fill="white"
  xmlns="http://www.w3.org/2000/svg"
>
  <path
    fillRule="evenodd"
    clipRule="evenodd"
    d="M32.4559 1.44477C41.3572 -0.447262 50.6413 0.890661 58.6459 5.21903C66.6511 9.54738 72.8537 16.5836 76.1443 25.0679C79.4349 33.5523 79.5983 42.9309 76.6052 51.5244C73.6116 60.1183 67.6577 67.3665 59.8085 71.9705C51.9589 76.5749 42.7272 78.2354 33.7654 76.6546C25.2029 75.1439 17.4211 70.7685 11.6859 64.2651C11.0361 63.5283 11.1066 62.4042 11.8435 61.7545C12.5804 61.1043 13.7045 61.1751 14.3543 61.9119C19.5568 67.8115 26.616 71.7803 34.3835 73.1509C42.5131 74.5851 50.8877 73.0787 58.008 68.9019C65.1287 64.7251 70.53 58.1501 73.2453 50.3543C75.9602 42.5586 75.8122 34.0509 72.8275 26.3544C69.8423 18.6579 64.2153 12.2751 56.9541 8.34863C49.6923 4.42217 41.2703 3.20848 33.1956 4.92483C25.1209 6.64119 17.9207 11.1755 12.884 17.716C8.10288 23.9248 5.56762 31.5565 5.6679 39.3678C5.6805 40.3502 4.89436 41.1568 3.91199 41.1694C2.92961 41.182 2.123 40.3959 2.11039 39.4135C1.99982 30.8025 4.79458 22.3896 10.0652 15.5453C15.6174 8.33528 23.5547 3.33681 32.4559 1.44477ZM40.3436 50.4745C46.7673 50.4745 51.9749 45.2669 51.9749 38.8431C51.9749 32.4193 46.7673 27.2118 40.3436 27.2118C33.9198 27.2118 28.7123 32.4193 28.7123 38.8431C28.7123 45.2669 33.9198 50.4745 40.3436 50.4745ZM40.3436 46.9166C44.8024 46.9166 48.4168 43.302 48.4168 38.8431C48.4168 34.3843 44.8024 30.7696 40.3436 30.7696C35.8847 30.7696 32.2701 34.3843 32.2701 38.8431C32.2701 43.302 35.8847 46.9166 40.3436 46.9166ZM26.6978 60.056C21.6783 56.7959 17.9829 51.856 16.2731 46.1205C14.5633 40.3849 14.9508 34.228 17.3662 28.7519C19.7817 23.2759 24.0673 18.8384 29.4559 16.2338C34.8445 13.6292 40.9843 13.0276 46.776 14.5367C52.5677 16.0457 57.6331 19.567 61.0656 24.4699C63.3084 27.6733 64.7581 31.33 65.3366 35.1418C65.4841 36.1132 64.8162 37.0201 63.8447 37.1675C62.8732 37.3149 61.9664 36.6469 61.8188 35.6756C61.3223 32.4017 60.0773 29.2614 58.1512 26.5103C55.203 22.2996 50.8529 19.2755 45.8789 17.9795C40.9049 16.6835 35.632 17.2002 31.0042 19.4371C26.3764 21.6739 22.6958 25.4849 20.6214 30.1878C18.547 34.8907 18.2142 40.1784 19.6826 45.1042C21.151 50.0302 24.3247 54.2725 28.6355 57.0718C32.9463 59.8714 38.1128 61.0453 43.21 60.3829C46.443 59.9632 49.5142 58.8222 52.2089 57.0718C53.0333 56.5368 54.135 56.771 54.67 57.595C55.2049 58.4189 54.9707 59.5206 54.1467 60.056C51.0089 62.0936 47.4328 63.422 43.6683 63.911C37.7331 64.682 31.7173 63.3156 26.6978 60.056ZM7.17569 58.1488C10.8032 58.1488 13.7439 55.2081 13.7439 51.5803C13.7439 47.9529 10.8032 45.0122 7.17569 45.0122C3.54813 45.0122 0.607422 47.9529 0.607422 51.5803C0.607422 55.2081 3.54813 58.1488 7.17569 58.1488ZM7.17569 54.5907C8.8383 54.5907 10.1861 53.2431 10.1861 51.5803C10.1861 49.9179 8.8383 48.5698 7.17569 48.5698C5.51307 48.5698 4.16523 49.9179 4.16523 51.5803C4.16523 53.2431 5.51307 54.5907 7.17569 54.5907ZM61.0425 54.8691C64.6703 54.8691 67.611 51.9284 67.611 48.3006C67.611 44.6731 64.6703 41.7325 61.0425 41.7325C57.4152 41.7325 54.4745 44.6731 54.4745 48.3006C54.4745 51.9284 57.4152 54.8691 61.0425 54.8691ZM61.0425 51.311C62.7054 51.311 64.053 49.9634 64.053 48.3006C64.053 46.6381 62.7054 45.2903 61.0425 45.2903C59.3801 45.2903 58.0325 46.6381 58.0325 48.3006C58.0325 49.9634 59.3801 51.311 61.0425 51.311Z"
    fill="white"
  />
</svg>
